<svg xmlns="http://www.w3.org/2000/svg" version="1.1" xmlns:xlink="http://www.w3.org/1999/xlink" xmlns:svgjs="http://svgjs.com/svgjs" width="512" height="512" x="0" y="0" viewBox="0 0 32 32" style="enable-background:new 0 0 512 512" xml:space="preserve"><g><path d="M28 1c1.654 0 3 1.346 3 3v24c0 1.654-1.346 3-3 3H4c-1.654 0-3-1.346-3-3V4c0-1.654 1.346-3 3-3zm0-1H4C1.8 0 0 1.8 0 4v24c0 2.2 1.8 4 4 4h24c2.2 0 4-1.8 4-4V4c0-2.2-1.8-4-4-4z" fill="#000000" data-original="#000000"></path><path d="M14.192 15.573s1.773-.135 1.773-2.256c0-2.12-1.203-3.165-3.041-3.165l-6.297-.01v11.715h6.443s3.222.102 3.222-3.514c.001 0 .238-2.77-2.1-2.77zM8.971 11.9h3.222s1.102.018 1.102 1.447c0 1.481-1.102 1.481-1.102 1.481H8.971zm3.515 8.2H8.971v-3.514h3.514s1.757.018 1.757 1.757-1.503 1.757-1.756 1.757zM21.272 13.071c-4.401 0-4.393 4.393-4.393 4.393s-.293 4.393 4.393 4.393c0 0 4.1 0 4.1-3.514h-2.343s0 1.757-1.757 1.757c0 0-1.757 0-1.757-2.343h5.857c0-1.171 0-4.686-4.1-4.686zm-1.758 3.515s-.039-1.757 1.757-1.757c1.795 0 1.757 1.757 1.757 1.757zM18.929 11.314h4.686v1.171h-4.686z" fill="#000000" data-original="#000000"></path></g></svg>