<svg xmlns="http://www.w3.org/2000/svg" version="1.1" xmlns:xlink="http://www.w3.org/1999/xlink" xmlns:svgjs="http://svgjs.com/svgjs" width="512" height="512" x="0" y="0" viewBox="0 0 512 512" style="enable-background:new 0 0 512 512" xml:space="preserve"><g><path d="M448 0h-32v32h32c17.673 0 32 14.327 32 32v384c0 17.673-14.327 32-32 32H64c-17.673 0-32-14.327-32-32V64c0-17.673 14.327-32 32-32h192V0H64C28.654 0 0 28.654 0 64v384c0 35.346 28.654 64 64 64h384c35.346 0 64-28.654 64-64V64c0-35.346-28.654-64-64-64z" fill="#000000" data-original="#000000"></path><path d="M352 0h32v32h-32zM288 0h32v32h-32zM80 191.312v113.376l176 114.384 176-114.384V191.312L256 76.928 80 191.312zm32 38.176L140.48 248 112 266.512v-37.024zm144 151.44L125.36 296l44.48-28.912L256 323.072l86.16-56 44.48 28.912L256 380.928zM199.2 248l56.8-36.928L312.8 248 256 284.928 199.2 248zM400 266.512 371.52 248 400 229.488v37.024zm-57.84-37.6L256 172.928l-86.16 56L125.36 200 256 115.072 386.64 200l-44.48 28.912z" fill="#000000" data-original="#000000"></path></g></svg>