<svg xmlns="http://www.w3.org/2000/svg" version="1.1" xmlns:xlink="http://www.w3.org/1999/xlink" xmlns:svgjs="http://svgjs.com/svgjs" width="512" height="512" x="0" y="0" viewBox="0 0 24 24" style="enable-background:new 0 0 512 512" xml:space="preserve"><g><path d="m4.006 19.352-.003 3.913c0 .417.338.75.75.75h4.834a.75.75 0 0 0 .645-.368l2.681-4.523h6.34a.75.75 0 0 0 .75-.75v-5.87a.75.75 0 0 0-.75-.75h-2.661l3.331-6.744A.741.741 0 0 0 20 4.679V.766a.75.75 0 0 0-.75-.75h-4.832a.75.75 0 0 0-.698.475l-1.745 4.417H4.753a.75.75 0 0 0-.75.75l.003 5.87c0 .414.336.75.75.75h2.658l-3.331 6.744a.75.75 0 0 0-.077.33zm1.5.176 3.788-7.669a.75.75 0 0 0-.672-1.082H5.505l-.002-4.37h6.982a.75.75 0 0 0 .698-.475l1.745-4.417H18.5v2.988l-3.788 7.669a.75.75 0 0 0 .672 1.082h3.118v4.37h-6.017a.75.75 0 0 0-.645.368l-2.68 4.524H5.503z" fill="#000000" data-original="#000000"></path></g></svg>