<svg xmlns="http://www.w3.org/2000/svg" version="1.1" xmlns:xlink="http://www.w3.org/1999/xlink" xmlns:svgjs="http://svgjs.com/svgjs" width="512" height="512" x="0" y="0" viewBox="0 0 682.667 682.667" style="enable-background:new 0 0 512 512" xml:space="preserve"><g><defs><clipPath id="b" clipPathUnits="userSpaceOnUse"><path d="M0 512h512V0H0Z" fill="#000000" data-original="#000000"></path></clipPath></defs><mask id="a"><rect width="100%" height="100%" fill="#ffffff" data-original="#ffffff"></rect><path d="M0 0c5.52 0 10-4.48 10-10S5.52-20 0-20s-10 4.48-10 10S-5.52 0 0 0" style="fill-opacity:1;fill-rule:nonzero;stroke:none" transform="matrix(1.33333 0 0 -1.33333 501.333 57.333)" fill="#ffffff" data-original="#ffffff"></path></mask><g mask="url(#a)"><g clip-path="url(#b)" transform="matrix(1.33333 0 0 -1.33333 0 682.667)"><path d="M0 0c5.52 0 10-4.48 10-10S5.52-20 0-20s-10 4.48-10 10S-5.52 0 0 0" style="fill-opacity:1;fill-rule:nonzero;stroke:none" transform="translate(376 469)" fill="#000000" data-original="#000000"></path><path d="M0 0c5.67.49 10.67-1.48 15.28-4.561C20.44-8.01 24.25-12.67 27.4-17.97c4.35-7.33 10.201-12.99 18.59-15.46 9.18-2.71 17.97-.95 26.521 2.72" style="stroke-width:20;stroke-linecap:round;stroke-linejoin:round;stroke-miterlimit:10;stroke-dasharray:none;stroke-opacity:1" transform="translate(141.14 165.37)" fill="none" stroke="#000000" stroke-width="20" stroke-linecap="round" stroke-linejoin="round" stroke-miterlimit="10" stroke-dasharray="none" stroke-opacity="" data-original="#000000"></path><path d="M0 0c-66.351 19.51-114.78 80.859-114.78 153.52 0 88.37 71.63 160 160 160s160-71.63 160-160C205.22 80.859 156.79 19.51 90.439 0 76.1-4.221 60.93-6.48 45.22-6.48S14.34-4.221 0 0Z" style="stroke-width:20;stroke-linecap:round;stroke-linejoin:round;stroke-miterlimit:10;stroke-dasharray:none;stroke-opacity:1" transform="translate(210.78 82.48)" fill="none" stroke="#000000" stroke-width="20" stroke-linecap="round" stroke-linejoin="round" stroke-miterlimit="10" stroke-dasharray="none" stroke-opacity="" data-original="#000000"></path><path d="M0 0h-412c-22.09 0-40 17.91-40 40v412c0 22.09 17.91 40 40 40H0c22.09 0 40-17.91 40-40V40C40 17.91 22.09 0 0 0Z" style="stroke-width:20;stroke-linecap:butt;stroke-linejoin:miter;stroke-miterlimit:10;stroke-dasharray:none;stroke-opacity:1" transform="translate(462 10)" fill="none" stroke="#000000" stroke-width="20" stroke-linecap="butt" stroke-linejoin="miter" stroke-miterlimit="10" stroke-dasharray="none" stroke-opacity="" data-original="#000000"></path><path d="M0 0h200" style="stroke-width:20;stroke-linecap:round;stroke-linejoin:round;stroke-miterlimit:10;stroke-dasharray:none;stroke-opacity:1" transform="translate(136 459)" fill="none" stroke="#000000" stroke-width="20" stroke-linecap="round" stroke-linejoin="round" stroke-miterlimit="10" stroke-dasharray="none" stroke-opacity="" data-original="#000000"></path><path d="M0 0c3.279 3.56 5.189 8.3 5.22 13.52v39.82c-.031 18.309 7.219 23.139 12.509 31.22-83.609 12.479-86.24 89.36-57.04 123.94.451.52.861 1.51.67 2.069-4.479 13.54-3.899 43.361 6.351 42.891 14.04-.65 25.24-8.561 38.269-16.311.991-.58 1.781-.809 2.931-.5 11.98 3.25 24.09 5.01 36.31 5.161 12.219-.151 24.33-1.911 36.309-5.161 1.151-.309 1.941-.08 2.931.5 13.029 7.75 24.229 15.661 38.269 16.311 10.25.47 10.831-29.351 6.351-42.891-.19-.559.22-1.549.67-2.069 29.2-34.58 26.569-111.461-57.04-123.94C78 76.479 85.25 71.649 85.22 53.34V13.52C85.25 8.3 87.16 3.56 90.439 0" style="stroke-width:20;stroke-linecap:round;stroke-linejoin:round;stroke-miterlimit:10;stroke-dasharray:none;stroke-opacity:1" transform="translate(210.78 82.48)" fill="none" stroke="#000000" stroke-width="20" stroke-linecap="round" stroke-linejoin="round" stroke-miterlimit="10" stroke-dasharray="none" stroke-opacity="" data-original="#000000"></path></g></g></g></svg>