<svg xmlns="http://www.w3.org/2000/svg" version="1.1" xmlns:xlink="http://www.w3.org/1999/xlink" xmlns:svgjs="http://svgjs.com/svgjs" width="512" height="512" x="0" y="0" viewBox="0 0 56 56" style="enable-background:new 0 0 512 512" xml:space="preserve"><g><path d="M47.397 19.6a37.438 37.438 0 0 0-6.51-3.06c-7.936-2.84-16.706-3.216-26.065-1.119-2.648.592-4.212 1.133-4.762 1.337a3.168 3.168 0 0 0-1.861 4.068 3.165 3.165 0 0 0 4.067 1.862l.002-.001c.155-.058.486-.17.973-.318a41.075 41.075 0 0 1 2.962-.775c8.062-1.804 15.859-1.49 22.552.903 1.89.677 3.71 1.531 5.409 2.541a3.165 3.165 0 0 0 4.336-1.103 3.166 3.166 0 0 0-1.103-4.335zm-.616 3.313a1.167 1.167 0 0 1-1.595.405 33.187 33.187 0 0 0-5.756-2.705c-4.047-1.448-8.467-2.176-13.094-2.176-3.432 0-6.979.4-10.569 1.204-1.09.244-2.135.518-3.107.813-.545.166-.915.292-1.089.357a1.164 1.164 0 1 1-.812-2.181c.511-.19 1.973-.695 4.5-1.261 8.986-2.013 17.382-1.658 24.955 1.051a35.574 35.574 0 0 1 6.162 2.896c.55.33.732 1.045.405 1.597z" fill="#000000" data-original="#000000"></path><path d="M28 0C12.561 0 0 12.561 0 28s12.561 28 28 28 28-12.561 28-28S43.439 0 28 0zm0 54C13.664 54 2 42.337 2 28S13.664 2 28 2s26 11.663 26 26-11.664 26-26 26z" fill="#000000" data-original="#000000"></path><path d="M43.998 27.199c-10.286-4.409-19.972-5.543-28.008-3.283-1.813.51-2.847.999-3.303 1.246a3.168 3.168 0 0 0-1.275 4.288 3.168 3.168 0 0 0 4.288 1.275c.049-.025.174-.083.375-.166a14.788 14.788 0 0 1 1.627-.553c6.63-1.865 14.862-.824 23.803 3.008a3.15 3.15 0 0 0 2.422.029 3.137 3.137 0 0 0 1.732-1.691 3.166 3.166 0 0 0-1.661-4.153zm-.177 3.366a1.163 1.163 0 0 1-1.528.611c-6.303-2.701-12.299-4.07-17.703-4.07-2.627 0-5.115.324-7.43.975a16.5 16.5 0 0 0-1.849.63 7.38 7.38 0 0 0-.565.256 1.16 1.16 0 1 1-1.108-2.045c.308-.167 1.206-.605 2.893-1.079 7.591-2.136 16.817-1.031 26.679 3.195.589.252.864.938.611 1.527z" fill="#000000" data-original="#000000"></path><path d="M40.859 35.148c-7.148-4.083-15.364-5.226-23.758-3.298-1.253.288-2.419.63-3.2.938a3.137 3.137 0 0 0-1.743 1.68 3.137 3.137 0 0 0-.044 2.421 3.167 3.167 0 0 0 4.101 1.788l.006-.002c.073-.029.249-.091.52-.177a22.317 22.317 0 0 1 1.777-.48c6.817-1.566 13.458-.658 19.202 2.625a3.168 3.168 0 0 0 4.316-1.178 3.167 3.167 0 0 0-1.177-4.317zm-.559 3.325a1.167 1.167 0 0 1-1.588.434c-4.222-2.413-8.887-3.637-13.748-3.637-2.264 0-4.57.265-6.894.799-.695.16-1.347.336-1.934.523a9.89 9.89 0 0 0-.655.225 1.168 1.168 0 0 1-1.506-.658 1.157 1.157 0 0 1 .016-.891c.125-.285.352-.505.642-.618.328-.129 1.269-.471 2.916-.85 7.894-1.813 15.611-.746 22.318 3.085.27.154.463.404.545.704.082.301.043.614-.112.884z" fill="#000000" data-original="#000000"></path></g></svg>